:SAMPLES-PER-SECOND 30
:FULLY-SPECIFIED
:DEGREES
100
root  -21.6727 39.5183 -20.1008 2.8688 -8.28777 -8.1216
RightUpLeg  -10.9954 -8.666 1.39498
RightLeg  22.6698 -2.17624 -0.562475
RightFoot  -11.071 -0.0815022 2.7635
RightToes  1.16414e-010 0 -3.6325e-017
Spine  4.37701 0.241626 15.1424
Spine1  9.28399 2.17906 -3.64842
HEad  3.2066 5.93617 -5.23657
LeftShoulder1  8.30255 -11.6411 -47.8418
LeftArm  -3.31856 25.1091 -26.0761
LeftForeArm  20.2335 -18.2497 -4.49709
LeftHand  -0.244104 0.0205437 5.32207
RightShoulder  6.03454 9.31327 40.8906
RightArm  -1.48297 0.234575 28.9038
RightForeArm  -4.57753 26.6768 5.97409
RightHand  -0.945059 1.21645 -16.6768
LeftUpLeg  -20.1809 0.121684 2.75251
LeftLeg  62.4858 -1.45349 -2.45031
LeftFoot  1.45425 0.563036 -5.16629
LeftToes  2.00086e-010 -2.05915e-011 4.26721e-011
101
root  -22.2136 39.8016 -18.7191 2.51088 -6.9595 -6.14287
RightUpLeg  -6.86128 -9.53686 -0.948098
RightLeg  20.0412 -2.59532 0.22662
RightFoot  -12.3829 -0.0576431 2.81913
RightToes  1.16414e-010 0 -3.6325e-017
Spine  4.59288 1.12829 13.2415
Spine1  8.44596 3.004 -4.17257
HEad  3.69883 4.43945 -4.40002
LeftShoulder1  7.98219 -11.4321 -46.6155
LeftArm  -3.12858 27.6684 -25.6183
LeftForeArm  18.5872 -19.4105 -4.27753
LeftHand  -0.244104 0.0205437 5.32207
RightShoulder  5.83584 9.06099 40.2905
RightArm  -2.31614 2.45865 29.2211
RightForeArm  -3.75055 29.2999 6.56596
RightHand  -0.914583 0.947087 -16.8094
LeftUpLeg  -24.8488 2.77392 0.960525
LeftLeg  58.1434 -1.71573 -2.41153
LeftFoot  0.698535 0.599182 -5.7285
LeftToes  2.00086e-010 -2.05915e-011 4.26721e-011
102
root  -22.6811 39.9476 -17.3624 2.00246 -5.97672 -4.55902
RightUpLeg  -2.82215 -9.86328 -2.93096
RightLeg  17.8514 -2.96127 0.857551
RightFoot  -13.5098 -0.031205 3.20398
RightToes  1.16414e-010 0 -3.6325e-017
Spine  5.16491 1.791 11.9417
Spine1  7.87181 3.75394 -5.10483
HEad  3.67628 3.40608 -4.03389
LeftShoulder1  7.70764 -11.2465 -45.5484
LeftArm  -3.60677 29.5926 -25.2449
LeftForeArm  18.1526 -20.133 -4.12992
LeftHand  -0.244104 0.0205437 5.32207
RightShoulder  5.65448 8.88864 39.5164
RightArm  -2.85165 4.58263 29.6595
RightForeArm  -3.36511 32.0204 7.24208
RightHand  -0.858628 0.583835 -16.7225
LeftUpLeg  -28.0715 4.99888 -0.817083
LeftLeg  50.9672 -2.82056 -3.27982
LeftFoot  -0.250791 0.630804 -6.46297
LeftToes  2.00086e-010 -2.05915e-011 4.26721e-011
103
root  -23.0662 39.9574 -15.9881 1.46779 -4.98032 -3.5256
RightUpLeg  1.15244 -10.1809 -4.45021
RightLeg  16.0641 -3.74356 1.45182
RightFoot  -14.6952 -0.0143699 2.93666
RightToes  1.16414e-010 0 -3.6325e-017
Spine  5.66113 2.1017 11.3276
Spine1  7.90694 4.18822 -5.99379
HEad  2.97943 2.71171 -4.05042
LeftShoulder1  7.62092 -11.1803 -45.2259
LeftArm  -4.19845 30.8866 -24.5729
LeftForeArm  18.3287 -20.3982 -4.04792
LeftHand  -0.244104 0.0205437 5.32207
RightShoulder  5.56175 8.87367 38.8545
RightArm  -3.08697 6.90195 29.8264
RightForeArm  -2.71144 34.6908 7.93693
RightHand  -0.790668 0.198943 -16.4439
LeftUpLeg  -29.6452 6.17233 -2.22271
LeftLeg  40.8196 -3.63745 -3.01333
LeftFoot  -1.70528 0.479592 -5.56368
LeftToes  2.00086e-010 -2.05915e-011 4.26721e-011
104
root  -23.397 39.9167 -14.5549 1.08607 -4.32153 -2.69824
RightUpLeg  5.41669 -9.94356 -5.67994
RightLeg  13.4621 -4.78925 2.04918
RightFoot  -15.7136 -0.0113634 2.48193
RightToes  1.16414e-010 0 -3.6325e-017
Spine  5.74519 2.37251 10.6697
Spine1  8.47051 4.56591 -6.74977
HEad  2.23567 2.3062 -4.17478
LeftShoulder1  7.63611 -11.1717 -45.3471
LeftArm  -5.04258 31.7285 -23.9915
LeftForeArm  18.8859 -19.4987 -4.0911
LeftHand  -0.244104 0.0205437 5.32207
RightShoulder  5.54978 8.95609 38.4776
RightArm  -2.8654 9.11231 29.5436
RightForeArm  -1.8027 37.1283 8.59916
RightHand  -0.744482 -0.0574402 -16.2157
LeftUpLeg  -29.6097 6.726 -3.33906
LeftLeg  27.6724 -4.21583 -1.89437
LeftFoot  -1.70345 0.363214 -4.20288
LeftToes  2.00086e-010 -2.05915e-011 4.26721e-011
105
root  -23.6852 39.7699 -13.0585 0.887512 -4.41055 -2.09955
RightUpLeg  9.53922 -9.59528 -6.6875
RightLeg  10.7518 -4.57375 2.58207
RightFoot  -16.7958 0.042135 3.23774
RightToes  1.16414e-010 0 -3.6325e-017
Spine  5.55273 2.81474 9.94324
Spine1  9.07478 5.13989 -7.39575
HEad  2.0237 2.2635 -4.09432
LeftShoulder1  7.55277 -11.0493 -45.2228
LeftArm  -6.80375 32.4788 -24.1667
LeftForeArm  19.6281 -17.3834 -4.24788
LeftHand  -0.244104 0.0205437 5.32207
RightShoulder  5.62024 9.12386 38.445
RightArm  -1.94553 10.7291 28.9165
RightForeArm  -1.08214 39.0807 9.16589
RightHand  -0.716204 -0.224833 -16.0945
LeftUpLeg  -28.6385 6.284 -3.10193
LeftLeg  13.9736 -3.07762 -1.4126
LeftFoot  -0.550333 0.312725 -3.27868
LeftToes  2.00086e-010 -2.05915e-011 4.26721e-011
106
root  -23.9026 39.4323 -11.4544 0.761475 -4.94734 -1.93037
RightUpLeg  12.8358 -9.78163 -7.62584
RightLeg  9.95237 -3.09471 2.83536
RightFoot  -18.2267 0.156188 4.66208
RightToes  1.16414e-010 0 -3.6325e-017
Spine  5.27635 3.23311 9.594
Spine1  9.32495 5.6789 -7.89331
HEad  1.96143 2.46302 -3.60366
LeftShoulder1  7.35861 -10.826 -44.7263
LeftArm  -9.16311 33.4382 -25.0764
LeftForeArm  19.832 -14.9308 -4.34957
LeftHand  -0.244104 0.0205437 5.32207
RightShoulder  5.75233 9.36683 38.6238
RightArm  -0.459121 11.5747 28.3999
RightForeArm  -0.488949 40.3526 9.54745
RightHand  -0.689563 -0.390657 -15.9998
LeftUpLeg  -27.9168 1.7958 0.563528
LeftLeg  4.74538 4.91317 -2.8669
LeftFoot  -0.287749 0.210292 -2.13371
LeftToes  2.00086e-010 -2.05915e-011 4.26721e-011
